<svg width="20.000000" height="20.000000" viewBox="0 0 20 20" fill="none" xmlns="http://www.w3.org/2000/svg" xmlns:xlink="http://www.w3.org/1999/xlink">
	<desc>
			Created with Pixso.
	</desc>
	<defs/>
	<path id="Vector" d="M18.3334 5.41663L13.3334 5.41663" stroke="#8BBEEE" stroke-opacity="1.000000" stroke-width="2.000000" stroke-linejoin="round" stroke-linecap="round"/>
	<path id="Vector" d="M4.99994 5.41663L1.66663 5.41663" stroke="#8BBEEE" stroke-opacity="1.000000" stroke-width="2.000000" stroke-linejoin="round" stroke-linecap="round"/>
	<path id="Vector" d="M8.33331 8.33337C6.72247 8.33337 5.41663 7.02747 5.41663 5.41663C5.41663 3.80579 6.72247 2.5 8.33331 2.5C9.94415 2.5 11.2499 3.80579 11.2499 5.41663C11.2499 7.02747 9.94415 8.33337 8.33331 8.33337Z" stroke="#8BBEEE" stroke-opacity="1.000000" stroke-width="2.000000" stroke-linejoin="round"/>
	<path id="Vector" d="M18.3333 14.5834L15 14.5834" stroke="#8BBEEE" stroke-opacity="1.000000" stroke-width="2.000000" stroke-linejoin="round" stroke-linecap="round"/>
	<path id="Vector" d="M6.66663 14.5834L1.66663 14.5834" stroke="#8BBEEE" stroke-opacity="1.000000" stroke-width="2.000000" stroke-linejoin="round" stroke-linecap="round"/>
	<path id="Vector" d="M11.6667 17.5C10.0558 17.5 8.75 16.1941 8.75 14.5833C8.75 12.9724 10.0558 11.6666 11.6667 11.6666C13.2775 11.6666 14.5833 12.9724 14.5833 14.5833C14.5833 16.1941 13.2775 17.5 11.6667 17.5Z" stroke="#8BBEEE" stroke-opacity="1.000000" stroke-width="2.000000" stroke-linejoin="round"/>
	<g opacity="0.000000"/>
</svg>
